<svg width="20" height="20" viewBox="0 0 20 20" fill="none" xmlns="http://www.w3.org/2000/svg">
<g clip-path="url(#clip0_1729_877)">
<path d="M10.4275 2.91675L10.4167 1.66675H9.16665C6.88595 1.66427 4.68623 2.51209 2.99715 4.0446C1.30806 5.57712 0.250936 7.68426 0.0322478 9.95446C-0.186441 12.2247 0.449016 14.4948 1.8145 16.3216C3.17998 18.1484 5.17742 19.4005 7.41665 19.8334C7.98736 19.9433 8.56714 19.9991 9.14832 20.0001C11.5799 19.9959 13.9109 19.0294 15.632 17.3117C17.3531 15.5941 18.3243 13.265 18.3333 10.8334V9.58342H10.4167L10.4275 2.91675ZM15.7133 12.0834C15.484 13.2699 14.936 14.3715 14.1279 15.2701C13.3199 16.1687 12.2825 16.8302 11.1269 17.1838C9.97138 17.5374 8.74136 17.5696 7.56889 17.277C6.39642 16.9844 5.32576 16.378 4.47182 15.523C3.61787 14.668 3.01289 13.5965 2.72181 12.4237C2.43072 11.2508 2.46451 10.0209 2.81956 8.86576C3.17461 7.71067 3.83751 6.67406 4.73711 5.8672C5.63671 5.06034 6.73905 4.51369 7.92582 4.28592L7.91665 12.0834H15.7133Z" fill="#707070"/>
<path d="M12.0834 0.00415039V7.91665H20C19.9897 5.82058 19.1522 3.81336 17.6697 2.33158C16.1871 0.84981 14.1794 0.0133512 12.0834 0.00415039Z" fill="#707070"/>
</g>
<defs>
<clipPath id="clip0_1729_877">
<rect width="20" height="20" fill="white"/>
</clipPath>
</defs>
</svg>
