<svg width="24" height="24" viewBox="0 0 24 24" fill="none" xmlns="http://www.w3.org/2000/svg">
<path d="M15.3488 0H8.65116C2.58642 0 0 2.58642 0 8.65116V15.3488C0 21.4136 2.58642 24 8.65116 24H15.3488C21.4136 24 24 21.4136 24 15.3488V8.65116C24 2.58642 21.4136 0 15.3488 0ZM14.5116 22.3256H8.65116C3.50065 22.3256 1.67442 20.4993 1.67442 15.3488V8.65116C1.67442 3.50065 3.50065 1.67442 8.65116 1.67442H14.5116V22.3256ZM22.3256 15.3488C22.3256 20.2091 20.6969 22.1068 16.186 22.3055V1.69451C20.6969 1.89321 22.3256 3.79088 22.3256 8.65116V15.3488ZM8.12651 8.5507L10.9842 11.4084C11.062 11.486 11.1236 11.5782 11.1657 11.6798C11.2078 11.7813 11.2295 11.8901 11.2295 12C11.2295 12.1099 11.2078 12.2187 11.1657 12.3202C11.1236 12.4218 11.062 12.514 10.9842 12.5916L8.12651 15.4493C7.96854 15.6017 7.75702 15.686 7.53751 15.684C7.31799 15.682 7.10805 15.5939 6.9529 15.4386C6.79774 15.2833 6.7098 15.0732 6.70799 14.8537C6.70619 14.6342 6.79068 14.4228 6.94326 14.2649L9.2093 12L6.94326 9.73507C6.79068 9.57724 6.70619 9.3658 6.70799 9.14629C6.7098 8.92677 6.79774 8.71675 6.9529 8.56145C7.10805 8.40615 7.31799 8.318 7.53751 8.31599C7.75702 8.31398 7.96854 8.39827 8.12651 8.5507Z" fill="#707070"/>
</svg>
