<svg width="30" height="30" viewBox="0 0 30 30" fill="none" xmlns="http://www.w3.org/2000/svg">
<path d="M26.2387 8.12529H26.25L15.625 6.76279L13.8562 2.37404C13.31 0.827794 14.9725 -0.569706 16.4013 0.234044L29.0862 6.53654C30.3037 7.24279 30.3037 9.00154 29.0862 9.70904L16.4013 16.014C14.9725 16.8178 13.31 15.4203 13.8562 13.874L15.625 9.48404L26.2387 8.12279V8.12529ZM3.125 26.2503H1.875C0.83875 26.2503 0 27.0903 0 28.1253C0 29.1603 0.83875 30.0003 1.875 30.0003H3.125C4.16125 30.0003 5 29.1603 5 28.1253C5 27.0903 4.16125 26.2503 3.125 26.2503ZM24.375 18.7503H8.125C5.7125 18.7503 3.75 16.7878 3.75 14.3753C3.75 11.9628 5.7125 10.0003 8.125 10.0003H9.375C10.4113 10.0003 11.25 9.16029 11.25 8.12529C11.25 7.09029 10.4113 6.25029 9.375 6.25029H8.125C3.645 6.25029 0 9.89529 0 14.3753C0 18.8553 3.645 22.5003 8.125 22.5003H24.375C25.4088 22.5003 26.25 23.3415 26.25 24.3753C26.25 25.409 25.4088 26.2503 24.375 26.2503H16.875C15.8387 26.2503 15 27.0903 15 28.1253C15 29.1603 15.8387 30.0003 16.875 30.0003H24.375C27.4762 30.0003 30 27.4765 30 24.3753C30 21.274 27.4762 18.7503 24.375 18.7503ZM10.625 26.2503H9.375C8.33875 26.2503 7.5 27.0903 7.5 28.1253C7.5 29.1603 8.33875 30.0003 9.375 30.0003H10.625C11.6613 30.0003 12.5 29.1603 12.5 28.1253C12.5 27.0903 11.6613 26.2503 10.625 26.2503Z" fill="#565656"/>
</svg>
