<svg width="20" height="20" viewBox="0 0 20 20" fill="none" xmlns="http://www.w3.org/2000/svg">
<g clip-path="url(#clip0_1729_868)">
<path d="M19.9441 15.3009C19.0974 10.605 17.3933 5.77253 17.3133 5.55087C16.1066 2.26253 12.6733 0.0541992 8.76995 0.0541992C3.91411 0.0541992 -0.0358887 4.00503 -0.0358887 8.86087C0.0416113 11.3492 0.754945 15.2225 0.972445 16.62C6.23911 17.0784 11.4499 18.1725 17.1258 19.9459L20.0366 15.815L19.9441 15.3009ZM9.12995 9.22087C9.12995 9.68087 8.75661 10.0542 8.29661 10.0542C7.83661 10.0542 7.46328 9.68087 7.46328 9.22087C7.46328 8.76087 7.83661 8.38753 8.29661 8.38753C8.75661 8.38753 9.12995 8.76087 9.12995 9.22087ZM11.5116 8.38753H15.6141C15.9824 9.56503 16.4491 11.1517 16.8658 12.8617L11.1049 11.0009C11.4333 10.485 11.6299 9.8767 11.6299 9.22087C11.6299 8.9317 11.5816 8.65587 11.5116 8.38753ZM16.1199 17.0325C11.5066 15.6775 7.33328 14.8092 3.12828 14.3292C2.86078 12.63 2.46328 9.8892 2.46328 8.86087C2.46328 5.38337 5.29245 2.5542 8.76911 2.5542C11.4024 2.5542 13.7058 3.87753 14.7174 5.88753H8.29661C6.45828 5.88753 4.96328 7.38253 4.96328 9.22087C4.96328 10.8192 6.08911 12.1717 7.59161 12.4942L17.1433 15.5792L16.1199 17.0325Z" fill="#707070"/>
</g>
<defs>
<clipPath id="clip0_1729_868">
<rect width="20" height="20" fill="white"/>
</clipPath>
</defs>
</svg>
