<svg width="20" height="20" viewBox="0 0 20 20" fill="none" xmlns="http://www.w3.org/2000/svg">
<path d="M11.25 14.9997H8.75C7.60083 14.9997 6.66667 14.0655 6.66667 12.9164V10.4164C6.66667 9.2672 7.60083 8.33303 8.75 8.33303H11.25C12.3992 8.33303 13.3333 9.2672 13.3333 10.4164V12.9164C13.3333 14.0655 12.3992 14.9997 11.25 14.9997ZM9.16667 12.4997H10.8333V10.833H9.16667V12.4997ZM15.4167 19.9997H4.58333C2.05667 19.9997 0 17.943 0 15.4164V8.23803C0 6.71303 0.755 5.29303 2.02 4.43887L7.43667 0.783867C8.9925 -0.267799 11.0067 -0.267799 12.5642 0.783867L17.98 4.43887C19.245 5.2922 20 6.71303 20 8.23803V15.4164C20 17.943 17.9433 19.9997 15.4167 19.9997ZM10 2.4972C9.595 2.4972 9.18833 2.6172 8.83583 2.85637L3.41833 6.51053C2.84417 6.89887 2.5 7.54387 2.5 8.2372V15.4155C2.5 16.5647 3.43417 17.4989 4.58333 17.4989H15.4167C16.5658 17.4989 17.5 16.5647 17.5 15.4155V8.23803C17.5 7.5447 17.1567 6.8997 16.5817 6.51137L11.165 2.85637C10.8108 2.6172 10.405 2.4972 10 2.4972Z" fill="#707070"/>
</svg>
