<svg width="20" height="20" viewBox="0 0 20 20" fill="none" xmlns="http://www.w3.org/2000/svg">
<path d="M18.1642 4.64925L12.3308 0.712588C10.915 -0.242412 9.085 -0.242412 7.66917 0.712588L1.83667 4.64925C0.686667 5.42425 0 6.71509 0 8.10342V15.8334C0 18.1309 1.86917 20.0001 4.16667 20.0001H15.8333C18.1308 20.0001 20 18.1309 20 15.8334V8.10342C20 6.71592 19.3133 5.42425 18.1642 4.64925ZM13.3333 13.3334C13.3333 14.2526 12.5858 15.0001 11.6667 15.0001H8.33333C7.41417 15.0001 6.66667 14.2526 6.66667 13.3334V10.0001C6.66667 9.08092 7.41417 8.33342 8.33333 8.33342H11.6667C12.5858 8.33342 13.3333 9.08092 13.3333 10.0001V13.3334ZM11.6667 10.0001L11.6683 13.3334H8.33333V10.0001H11.6667Z" fill="white"/>
</svg>
