<svg width="20" height="20" viewBox="0 0 20 20" fill="none" xmlns="http://www.w3.org/2000/svg">
<path d="M19.9442 15.2467C19.0975 10.5508 17.3933 5.71833 17.3133 5.49667C16.1067 2.20833 12.6733 0 8.77 0C3.91417 0 -0.0358315 3.95083 -0.0358315 8.80667C0.0416686 11.295 0.755002 15.1683 0.972502 16.5658C6.23917 17.0242 11.45 18.1183 17.1258 19.8917L20.0367 15.7608L19.9442 15.2467ZM9.13 9.16667C9.13 9.62667 8.75667 10 8.29667 10C7.83667 10 7.46334 9.62667 7.46334 9.16667C7.46334 8.70667 7.83667 8.33333 8.29667 8.33333C8.75667 8.33333 9.13 8.70667 9.13 9.16667ZM11.5117 8.33333H15.6142C15.9825 9.51083 16.4492 11.0975 16.8658 12.8075L11.105 10.9467C11.4333 10.4308 11.63 9.8225 11.63 9.16667C11.63 8.8775 11.5817 8.60167 11.5117 8.33333ZM16.12 16.9783C11.5067 15.6233 7.33334 14.755 3.12834 14.275C2.86084 12.5758 2.46334 9.835 2.46334 8.80667C2.46334 5.32917 5.2925 2.5 8.76917 2.5C11.4025 2.5 13.7058 3.82333 14.7175 5.83333H8.29667C6.45834 5.83333 4.96334 7.32833 4.96334 9.16667C4.96334 10.765 6.08917 12.1175 7.59167 12.44L17.1433 15.525L16.12 16.9783Z" fill="#707070"/>
</svg>
