<svg width="20" height="20" viewBox="0 0 20 20" fill="none" xmlns="http://www.w3.org/2000/svg">
<path d="M19.94 14.5183L10.5508 11.5283C11.2192 10.9183 11.6467 10.0483 11.6467 9.07417C11.6467 8.46417 11.47 7.9 11.1833 7.4075H18.0533C18.675 9.005 19.4625 11.375 19.8692 13.9892C19.8975 14.1708 19.9208 14.3458 19.94 14.5183ZM6.64667 9.07417C6.64667 9.99333 7.39417 10.7408 8.31333 10.7408C9.2325 10.7408 9.98 9.99333 9.98 9.07417C9.98 8.155 9.2325 7.4075 8.31333 7.4075C7.39417 7.4075 6.64667 8.155 6.64667 9.07417ZM7.1725 12.2025C7.15917 12.1983 7.14667 12.1917 7.13333 12.1867C5.87667 11.7092 4.98 10.4967 4.98 9.07417C4.98 7.23583 6.475 5.74083 8.31333 5.74083H17.3517C17.2733 5.57083 17.215 5.44833 17.185 5.3875C15.98 2.16333 12.5867 0 8.72417 0C3.91417 0 0 3.91417 0 8.72417C0 9.67583 0.2725 12.2775 0.506667 13.8808C0.771667 15.7 2.22167 17.1467 4.03083 17.4C7.48 17.8825 10.9383 18.6383 14.9167 19.7792C15.2192 19.8658 15.5258 19.9083 15.8308 19.9083C16.915 19.9083 17.9567 19.3717 18.6067 18.4142L19.3525 17.1975C19.5642 16.8475 19.7058 16.5292 19.8033 16.225L7.1725 12.2025Z" fill="white"/>
</svg>
