<svg width="120" height="23" viewBox="0 0 120 23" fill="none" xmlns="http://www.w3.org/2000/svg">
<g clip-path="url(#clip0_527_2214)">
<path d="M14.3706 5.35612L5.31184 5.1475L22.3988 9.61394C22.3868 9.59921 17.2308 3.28171 17.4507 3.1728C17.5366 3.13017 19.9831 3.18853 22.9209 3.27492C23.4994 3.29175 23.9852 3.71024 24.0892 4.27569C24.1456 4.58086 24.1751 4.8962 24.1751 5.21707L24.1739 5.21477V17.71C24.1739 20.5912 21.8214 22.9271 18.9197 22.9271H12.7638C11.348 21.1757 8.37741 17.4664 8.54464 17.3834C8.76649 17.2746 20.3808 17.13 20.3808 17.13L1.83727 13.4533L5.59322 20.2624L1.05987 19.7675C0.548009 19.7114 0.136684 19.3155 0.0722766 18.8084C0.0191736 18.391 2.93559e-06 17.9512 0 17.7122V5.21707C0 2.3359 2.35254 0 5.25424 0H11.1921L14.3706 5.35612ZM34.7358 5.38383C35.7724 5.38384 36.6665 5.56396 37.4181 5.92421C38.1697 6.28446 38.7463 6.79274 39.148 7.44893C39.5627 8.10511 39.7701 8.88355 39.7701 9.7842H36.6407C36.6407 9.28242 36.4656 8.88998 36.1158 8.60693C35.766 8.311 35.293 8.16307 34.6968 8.16307C34.0619 8.16308 33.5502 8.29816 33.1615 8.56835C32.7856 8.83854 32.5976 9.21163 32.5976 9.68768C32.5976 10.1251 32.7144 10.4597 32.9476 10.6913C33.1808 10.9229 33.5502 11.0902 34.0556 11.1931L36.213 11.637C37.4959 11.8943 38.4484 12.3447 39.0703 12.988C39.6923 13.6185 40.0033 14.4998 40.0033 15.632C40.0033 16.5455 39.7766 17.3497 39.3231 18.0446C38.8695 18.7265 38.228 19.254 37.3988 19.6272C36.5824 20.0002 35.6234 20.1868 34.522 20.1868C33.4594 20.1868 32.5264 20.0066 31.7231 19.6464C30.9327 19.2861 30.3171 18.7779 29.8765 18.1218C29.4489 17.4526 29.235 16.6742 29.235 15.7864H32.3645C32.3645 16.3011 32.5523 16.6999 32.9281 16.983C33.304 17.266 33.8417 17.4076 34.5414 17.4076C35.2541 17.4076 35.8177 17.2789 36.2324 17.0217C36.6471 16.7515 36.8545 16.3911 36.8545 15.9408C36.8545 15.5419 36.7508 15.2332 36.5435 15.0144C36.3492 14.7957 36.0122 14.6414 35.5328 14.5513L33.3363 14.1073C32.0534 13.85 31.0816 13.3611 30.4208 12.6406C29.7729 11.9201 29.4488 10.9743 29.4488 9.80349C29.4488 8.94144 29.6757 8.18236 30.1293 7.52617C30.5827 6.85711 31.2047 6.33602 31.9951 5.96289C32.7985 5.57689 33.7121 5.38383 34.7358 5.38383ZM91.2729 9.97725C92.2965 9.97727 93.1777 10.1895 93.9163 10.6141C94.6549 11.0258 95.2251 11.6177 95.6268 12.3897C96.0285 13.1488 96.2294 14.0559 96.2294 15.111V15.8637L89.1669 15.8963C89.2442 16.4209 89.4084 16.8347 89.6594 17.1375C90.0353 17.562 90.612 17.7744 91.3895 17.7744C91.9597 17.7744 92.4325 17.6778 92.8084 17.4848C93.1841 17.2919 93.4238 17.0217 93.5276 16.6742H96.2682C96.0998 17.7422 95.5685 18.5978 94.6743 19.2411C93.7802 19.8716 92.6658 20.1868 91.3311 20.1868C90.3592 20.1868 89.4911 19.968 88.7264 19.5306C87.9749 19.0931 87.3789 18.4948 86.9383 17.7357C86.5107 16.9637 86.297 16.0824 86.297 15.0917C86.297 14.0881 86.5042 13.2067 86.9188 12.4476C87.3464 11.6757 87.936 11.0709 88.6877 10.6335C89.4392 10.196 90.301 9.97725 91.2729 9.97725ZM119.975 19.9358H117.156L117.001 18.7008C116.741 19.1382 116.327 19.4985 115.757 19.7815C115.2 20.0517 114.571 20.1868 113.871 20.1868C112.938 20.1868 112.128 19.9809 111.442 19.5692C110.755 19.1574 110.217 18.5785 109.828 17.8322C109.453 17.0731 109.265 16.1854 109.265 15.1689C109.265 14.1396 109.459 13.2389 109.848 12.4669C110.237 11.6821 110.787 11.0709 111.5 10.6335C112.226 10.196 113.081 9.97725 114.066 9.97725C114.675 9.97727 115.238 10.0866 115.757 10.3053C116.288 10.524 116.696 10.8136 116.982 11.1738V5.38383H119.975V19.9358ZM44.8311 13.4319C44.9477 13.8435 45.0577 14.2811 45.1615 14.7442C45.2651 15.2074 45.3558 15.6835 45.4336 16.1725C45.4983 15.825 45.5567 15.5355 45.6086 15.304C45.6603 15.0595 45.7251 14.8022 45.8028 14.532C45.8807 14.2489 45.9908 13.8822 46.1333 13.4319L47.1246 10.286H50.1957L51.1093 13.4319C51.1353 13.5091 51.1741 13.67 51.226 13.9144C51.2907 14.146 51.3619 14.4098 51.4397 14.7056C51.5174 14.9887 51.5823 15.2654 51.6341 15.5355C51.6989 15.8057 51.7443 16.018 51.7702 16.1725C51.809 15.9408 51.8738 15.632 51.9645 15.2461C52.0681 14.8472 52.1654 14.474 52.2562 14.1266C52.3598 13.7792 52.4245 13.5477 52.4505 13.4319L53.3834 10.286H56.5516L53.1502 19.9358H50.3706L49.4376 16.8673C49.1915 16.0696 49.0036 15.4005 48.874 14.86C48.7444 14.3197 48.6667 13.9466 48.6408 13.7408C48.6019 13.9466 48.5241 14.2747 48.4075 14.7249C48.2908 15.1753 48.0771 15.9087 47.766 16.9251L46.8331 19.9358H43.9175L40.7881 10.286H43.937L44.8311 13.4319ZM60.8679 19.9358H57.8745V10.286H60.8679V19.9358ZM67.312 5.38383C67.5193 5.38383 67.7331 5.39678 67.9534 5.42251C68.1867 5.43537 68.4199 5.46104 68.6531 5.49965V8.04726H67.8174C67.299 8.04726 66.9556 8.18878 66.7871 8.47183C66.6188 8.75489 66.5345 9.10229 66.5345 9.51401V10.286H70.1108V7.29455H73.1043V10.286H74.9507V12.7564H73.1043V19.9358H70.1108V12.7564H66.5345V19.9358H63.5411V12.7564H62.2V10.286H63.5411V9.51401C63.5411 8.54904 63.6966 7.76417 64.0076 7.15945C64.3185 6.55472 64.7592 6.11085 65.3294 5.8278C65.8995 5.53187 66.5604 5.38383 67.312 5.38383ZM80.9816 13.2196L82.6531 10.286H85.9963L82.7893 15.2075L85.8797 19.9358H82.4393L80.7677 17.1568L79.135 19.9358H75.7334L78.999 15.2654L75.7334 10.286H79.1932L80.9816 13.2196ZM103.989 9.97725C105.142 9.97725 106.036 10.3311 106.671 11.0387C107.319 11.7335 107.643 12.7114 107.643 13.9722V19.9358H104.649V14.6863C104.649 14.0817 104.494 13.5992 104.183 13.2389C103.872 12.8658 103.457 12.6792 102.939 12.6792C102.343 12.6792 101.87 12.8594 101.52 13.2196C101.17 13.567 100.995 14.043 100.995 14.6477V19.9358H98.0018V10.286H100.82L101.015 11.2896C101.313 10.8779 101.721 10.5562 102.239 10.3246C102.771 10.093 103.354 9.97727 103.989 9.97725ZM114.591 12.6406C114.124 12.6406 113.716 12.7435 113.366 12.9493C113.016 13.1552 112.744 13.4383 112.55 13.7985C112.368 14.1588 112.278 14.5771 112.278 15.0531C112.278 15.5292 112.368 15.9473 112.55 16.3076C112.744 16.6678 113.016 16.9509 113.366 17.1568C113.716 17.3626 114.124 17.4655 114.591 17.4655C115.058 17.4655 115.466 17.369 115.815 17.1761C116.177 16.9702 116.456 16.6871 116.651 16.3267C116.859 15.9537 116.962 15.5292 116.962 15.0531C116.962 14.5642 116.859 14.1395 116.651 13.7792C116.456 13.419 116.177 13.1423 115.815 12.9493C115.466 12.7435 115.058 12.6406 114.591 12.6406ZM91.2923 12.3897C90.7869 12.3897 90.3722 12.4862 90.0482 12.6792C89.7373 12.8721 89.5041 13.1745 89.3485 13.5863C89.2919 13.7317 89.2457 13.8926 89.2096 14.0688H93.2555C93.2555 13.5541 93.0805 13.1488 92.7306 12.853C92.3808 12.5441 91.9012 12.3897 91.2923 12.3897ZM59.3517 5.40312C59.8182 5.40312 60.2134 5.564 60.5374 5.88564C60.8742 6.2073 61.0427 6.60616 61.0428 7.08221C61.0428 7.55827 60.8743 7.96363 60.5374 8.29816C60.2134 8.61979 59.8182 8.78058 59.3517 8.78058C58.8723 8.78057 58.4641 8.61981 58.1272 8.29816C57.8033 7.96363 57.6412 7.55827 57.6412 7.08221C57.6412 6.60616 57.8033 6.2073 58.1272 5.88564C58.4641 5.56399 58.8723 5.40313 59.3517 5.40312Z" fill="#E28400"/>
</g>
<defs>
<clipPath id="clip0_527_2214">
<rect width="120" height="23" fill="white"/>
</clipPath>
</defs>
</svg>
