<svg width="25" height="24" viewBox="0 0 25 24" fill="none" xmlns="http://www.w3.org/2000/svg">
<path d="M24.9988 5.45888V18.5388C24.9988 21.5548 22.566 24 19.5653 24H13.1993C11.7352 22.1667 8.66324 18.2839 8.83618 18.197C9.06403 18.0831 21.0762 17.9316 21.0762 17.9316L1.89998 14.0829L5.78406 21.2107L1.09605 20.6927C0.566722 20.634 0.14139 20.2194 0.0747855 19.6886C0.0198662 19.2517 0 18.7913 0 18.5411V5.46122C0 2.44522 2.43281 0 5.43351 0H11.574L14.8609 5.60685L5.49311 5.3884L23.1631 10.0639C23.1631 10.0639 17.8184 3.43529 18.0463 3.32136C18.1351 3.27673 20.6649 3.3378 23.703 3.42824C24.3012 3.44585 24.8037 3.88392 24.9112 4.47585C24.9696 4.7953 25 5.12532 25 5.46122L24.9988 5.45888Z" fill="#E28400"/>
</svg>
