<svg width="20" height="20" viewBox="0 0 20 20" fill="none" xmlns="http://www.w3.org/2000/svg">
<g clip-path="url(#clip0_1776_1779)">
<path d="M13.3692 11.667H6.63083C5.53567 11.6683 4.48575 12.104 3.71135 12.8783C2.93696 13.6527 2.50132 14.7027 2.5 15.7978V20.0003H17.5V15.7978C17.4987 14.7027 17.063 13.6527 16.2886 12.8783C15.5143 12.104 14.4643 11.6683 13.3692 11.667Z" fill="white"/>
<path d="M10 10C12.7614 10 15 7.76142 15 5C15 2.23858 12.7614 0 10 0C7.23858 0 5 2.23858 5 5C5 7.76142 7.23858 10 10 10Z" fill="white"/>
</g>
<defs>
<clipPath id="clip0_1776_1779">
<rect width="20" height="20" fill="white"/>
</clipPath>
</defs>
</svg>
